<svg width="311" height="301" viewBox="0 0 311 301" fill="none" xmlns="http://www.w3.org/2000/svg">
<path d="M99.6068 16.937C100.121 17.062 100.631 17.197 101.139 17.343C104.061 18.208 105.063 18.93 106.521 21.601C110.73 29.307 114.684 37.157 118.712 44.958L151.059 107.466L115.112 131.759C110.704 124.917 104.681 113.436 100.52 106.113C90.2928 124.854 80.3008 143.722 70.5458 162.713C63.0538 167.639 55.4468 173.007 48.0268 178.089C39.5348 183.891 10.8508 205.347 2.92884 205.689C-2.78616 203.325 1.26284 196.436 3.34884 192.706C12.1358 176.992 20.4608 161.004 28.9448 145.121L72.0138 64.311C79.5328 50.187 87.0318 35.928 94.7198 21.894C96.0998 19.374 97.1708 18.389 99.6068 16.937Z" fill="url(#paint0_linear_1_140)"/>
<path d="M205.951 111.155C223.435 100.868 250.945 94.774 270.703 99.735C283.998 102.98 295.402 111.492 302.297 123.315C311.985 139.795 311.379 158.194 307.391 176.155C298.903 136.335 267.962 132.832 233.068 140.585C218.725 143.854 204.826 148.835 191.671 155.421C188.022 164.587 183.372 170.513 173.719 173.775C160.077 178.802 143.457 171.383 138.886 157.273C136.59 150.02 137.286 142.15 140.82 135.413C144.208 129.028 149.981 124.24 156.881 122.09C165.442 119.457 172.44 121.161 180.042 125.279C189.146 119.641 196.204 115.529 205.951 111.155Z" fill="#19B9D4"/>
<path d="M205.951 111.155L206.133 112.164C197.388 116.688 190.686 120.545 182.291 125.601C191.426 133.348 190.943 137.166 190.608 147.597C190.407 153.87 193.244 155.51 187.054 161.809C183.626 166.669 174.698 171.951 173.719 173.775C160.077 178.802 143.457 171.383 138.886 157.273C136.59 150.02 137.286 142.15 140.82 135.413C144.208 129.028 149.981 124.24 156.881 122.09C165.442 119.457 172.44 121.161 180.042 125.279C189.146 119.641 196.204 115.529 205.951 111.155Z" fill="#18B1D0"/>
<path d="M123.339 151.167C126.404 154.686 141.492 182.925 144.519 188.471C103.996 209.369 74.7628 232.808 44.0508 266.331L34.7549 260.938C21.2799 252.701 16.0038 245.825 9.59485 231.665C44.3928 202.486 84.6418 175.204 123.339 151.167Z" fill="#163280"/>
<path d="M237.049 39.011C270.673 36.32 296.101 54.022 304.034 87.265C306.148 96.126 306.142 103.939 306.491 112.95C291.292 76.117 261.603 72.965 226.993 81.279C206.858 86.475 184.928 97.42 167.243 108.06C160.855 96.34 154.608 84.544 148.504 72.673C173.187 56.338 207.364 41.808 237.049 39.011Z" fill="#18B1D0"/>
<path d="M172.82 193.973C184.784 207.175 203.012 252.734 207.798 271.107C199.412 283.245 186.932 292.309 175.023 300.698L170.896 292.619C156.8 267.766 141.457 241.907 125.377 218.357C140.491 210.11 157.274 202.208 172.82 193.973Z" fill="#C9C9C9"/>
<path d="M254.199 152.791C260.961 152.486 267.086 152.164 273.776 153.738C282.99 155.932 290.961 161.683 295.952 169.735C307.237 188.075 296.13 208.152 285.938 224.115C271.105 247.349 251.202 266.05 227.453 279.918C217.076 286.182 207.329 289.919 195.906 293.67C242.094 262.192 263.19 207.571 254.199 152.791Z" fill="url(#paint1_linear_1_140)"/>
<path d="M150.728 0.547009C162.205 -2.08399 173.657 5.02701 176.393 16.482C179.128 27.937 172.125 39.458 160.699 42.299C149.122 45.178 137.42 38.061 134.649 26.456C131.877 14.85 139.1 3.21201 150.728 0.547009Z" fill="#C9C9C9"/>
<path d="M210.285 176.239C221.748 173.439 233.299 180.506 236.027 191.989C238.755 203.472 231.617 214.982 220.12 217.638C208.724 220.272 197.341 213.208 194.637 201.826C191.933 190.445 198.923 179.014 210.285 176.239Z" fill="#163280"/>
<defs>
<linearGradient id="paint0_linear_1_140" x1="15.5881" y1="105.685" x2="145.297" y2="126.061" gradientUnits="userSpaceOnUse">
<stop stop-color="#182B7B"/>
<stop offset="1" stop-color="#194894"/>
</linearGradient>
<linearGradient id="paint1_linear_1_140" x1="198.991" y1="222.996" x2="300.095" y2="220.127" gradientUnits="userSpaceOnUse">
<stop stop-color="#0E7CC1"/>
<stop offset="1" stop-color="#1DC9D9"/>
</linearGradient>
</defs>
</svg>
